<svg id="Layer_1" data-name="Layer 1" xmlns="http://www.w3.org/2000/svg" viewBox="0 0 792 612"><defs><style>.cls-1{fill:#939598;}.cls-2{fill:#f1f2f2;}.cls-2,.cls-3,.cls-4,.cls-5{stroke:#231f20;stroke-miterlimit:10;stroke-width:0.25px;}.cls-3{fill:#f7941d;}.cls-4{fill:#fbb040;}.cls-5{fill:#f15a29;}</style></defs><rect class="cls-1" width="792" height="612"/><path class="cls-2" d="M487,235.28l-3.34,1.92a95.76,95.76,0,0,1-51.7-20.56A10.07,10.07,0,1,1,419,204.21a95.17,95.17,0,0,1-10.05-14L477.8,230Z"/><path class="cls-3" d="M483.64,237.2l-5.51,3.19-18.2,10.51c-.58.06-1.17.14-1.75.22h0a156.42,156.42,0,0,0-53.83,17.78,158.89,158.89,0,0,0-23.08,15.47c-2.45,2-4.84,4-7.16,6.15-.25-.25-.5-.51-.74-.78-1.38-1.5-2.72-3-4-4.6-.76-.93-1.5-1.86-2.22-2.8a102.2,102.2,0,0,1-21-62.27c0-.79,0-1.58,0-2.36s0-1.43.07-2.13a2.77,2.77,0,0,1,0-.3c0-.63.05-1.25.09-1.86,0-.44.05-.87.1-1.3a4.11,4.11,0,0,1,.06-.69c0-.46.06-.91.12-1.36.13-1.37.28-2.73.46-4.1.1-.69.2-1.38.31-2.07.06-.44.14-.87.23-1.31s.15-.94.25-1.41.18-1,.27-1.47.24-1.18.38-1.78.24-1.09.37-1.63c.23-1,.47-1.92.73-2.89.12-.44.24-.87.37-1.31a97.79,97.79,0,0,1,3.15-9.4c.11-.29.22-.55.33-.84a4.62,4.62,0,0,1,.19-.47c.16-.41.33-.8.49-1.19.28-.67.55-1.3.85-2s.46-1,.71-1.57q.26-.57.54-1.14c.33-.69.68-1.37,1-2.05l.24-.45c.33-.68.69-1.35,1.06-2s.84-1.55,1.3-2.31c.22-.4.46-.82.71-1.21s.48-.83.73-1.23l.75-1.19c.35-.56.7-1.11,1.07-1.64s.69-1,1.05-1.55a3,3,0,0,1,.31-.44c.16-.25.34-.5.51-.75l.53-.74.88-1.19c.62-.85,1.27-1.69,1.93-2.5.22-.3.46-.58.69-.88.37-.45.74-.91,1.12-1.36a103,103,0,0,1,26-22.14c-.31,3.13-.47,6.31-.47,9.51a95.92,95.92,0,0,0,3.53,25.88,93.92,93.92,0,0,0,6,15.94q1.74,3.59,3.76,7a95.17,95.17,0,0,0,10.05,14,10.06,10.06,0,1,0,12.93,12.43,95.76,95.76,0,0,0,51.7,20.56Z"/><path class="cls-4" d="M322.68,406.71c0,.59,0,1.19,0,1.77-.88-1.87-1.72-3.75-2.55-5.64s-1.69-4-2.47-6.06a185.84,185.84,0,0,1,28.75-184.66c-.05.43-.07.86-.1,1.3,0,.61-.08,1.23-.09,1.86a2.77,2.77,0,0,0,0,.3c0,.7-.06,1.41-.07,2.13s0,1.57,0,2.36a102.2,102.2,0,0,0,21,62.27c.72.94,1.46,1.87,2.22,2.8,1.28,1.57,2.62,3.1,4,4.6.24.27.49.53.74.78A156.57,156.57,0,0,0,322.68,406.71Z"/><path class="cls-4" d="M370.14,154c-.38.45-.75.91-1.12,1.36-.23.3-.47.58-.69.88-.66.81-1.31,1.65-1.93,2.5l-.88,1.19-.53.74c-.18.25-.36.5-.51.75a3,3,0,0,0-.31.44c-.37.51-.72,1-1.05,1.55s-.72,1.08-1.07,1.64l-.75,1.19c-.25.4-.5.81-.73,1.23s-.49.81-.71,1.21c-.46.76-.88,1.54-1.3,2.31s-.73,1.32-1.06,2l-.24.45c-.34.68-.69,1.36-1,2.05q-.28.57-.54,1.14c-.25.53-.49,1.05-.71,1.57s-.57,1.29-.85,2c-.16.39-.33.78-.49,1.19a4.62,4.62,0,0,0-.19.47c-.11.29-.22.55-.33.84a97.79,97.79,0,0,0-3.15,9.4c-.13.44-.25.87-.37,1.31-.26,1-.5,1.93-.73,2.89-.14.54-.26,1.1-.37,1.63s-.26,1.18-.38,1.78-.2,1-.27,1.47-.18.93-.25,1.41-.17.87-.23,1.31c-.11.69-.21,1.38-.31,2.07-.19,1.37-.34,2.73-.46,4.1-.06.45-.1.9-.12,1.36a4.11,4.11,0,0,0-.06.69,186.51,186.51,0,0,0-22.25,34.7,102.85,102.85,0,0,1,44.56-121.24c-.31,3.13-.47,6.31-.47,9.51A97,97,0,0,0,370.14,154Z"/><path class="cls-5" d="M459.93,250.9l-22.07,12.75-16.43,9.47v0q-2.24,2.52-4.32,5.13c-27.12,33.32-43.55,77-43.55,124.82a200.92,200.92,0,0,0,17.87,83.33,186.91,186.91,0,0,1-68.73-77.94c0-.58,0-1.18,0-1.77a156.57,156.57,0,0,1,51.43-116.19c2.32-2.12,4.71-4.18,7.16-6.15a158.89,158.89,0,0,1,23.08-15.47,156.42,156.42,0,0,1,53.83-17.78h0C458.76,251,459.35,251,459.93,250.9Z"/></svg>