<svg id="Layer_1" data-name="Layer 1" xmlns="http://www.w3.org/2000/svg" viewBox="0 0 346.31 631.3"><defs><style>.cls-1{fill:#7abe90;}.cls-2{fill:#04a287;}.cls-3{fill:#231f20;}.cls-4{fill:#bfdd9d;}</style></defs><path class="cls-1" d="M151.69,625.81V336.7H335.74v81C335.74,524.8,255.4,613.19,151.69,625.81Z" transform="translate(-151.69 -55.11)"/><path class="cls-2" d="M498,55.11v285c0,191.27-155,346.31-346.31,346.31V648C251.47,645.07,357,542.48,357,438.36V313.68H151.69V55.11A444,444,0,0,0,329.16,90.35,443.78,443.78,0,0,0,498,55.11Z" transform="translate(-151.69 -55.11)"/><path class="cls-3" d="M303.71,253.85a35.26,35.26,0,0,0,42.28,0l-21.88,29Z" transform="translate(-151.69 -55.11)"/><path class="cls-4" d="M299.93,175.85a55.43,55.43,0,1,1-55.43-55.42A55.43,55.43,0,0,1,299.93,175.85Z" transform="translate(-151.69 -55.11)"/><path class="cls-3" d="M283.69,175.85a39.19,39.19,0,1,1-39.19-39.19A39.18,39.18,0,0,1,283.69,175.85Z" transform="translate(-151.69 -55.11)"/><circle class="cls-4" cx="256.26" cy="120.74" r="55.42"/><path class="cls-3" d="M447.14,175.85A39.19,39.19,0,1,1,408,136.66,39.19,39.19,0,0,1,447.14,175.85Z" transform="translate(-151.69 -55.11)"/></svg>