<svg id="Layer_1" data-name="Layer 1" xmlns="http://www.w3.org/2000/svg" viewBox="0 0 476.64 524.72"><defs><style>.cls-1{fill:#7ec474;}.cls-2{fill:#d0d2d3;}.cls-3{fill:#231f20;}</style></defs><path class="cls-1" d="M362.64,135.3c-84-12.19-166.42,44.84-178.14,103.81C171.37,305.16,252.67,344.89,231.63,409c-11,33.64-44.76,57.32-79,81.36-47.56,33.41-83.79,39.72-84.94,62.53-.76,15.07,14,32.89,29,34.24,21.55,1.93,30.15-31.29,83-85,34.85-35.37,54.82-45,74.31-43.77,5.79.37,19.67,1.25,26.81,10.92,14.35,19.41-8.79,60.3-28,94.19-25.5,45.06-42.74,58.51-36.57,74.33s32.65,25.61,47.19,17.69c15.23-8.29,9.58-31.67,17.7-73.14,9-46,32.21-100.28,49.54-99.1,15,1,23.92,43.61,27.14,59,13.26,63.48-6.09,98.08,11.79,110.89,15.48,11.09,50.69,0,57.81-18.87,8.75-23.22-31.35-41.32-42.62-95.88-5-24.26-5.7-62.41,10.77-70.46,17.24-8.44,52.54,16.51,69.6,47.19,20.65,37.12,6.19,67.53,23.59,76.68,17.92,9.42,54.77-11.49,55.45-30.68.66-18.69-33.5-22.57-62.52-56.62-28.84-33.83-32.91-74.34-34.22-87.3-8.15-81.06,56.49-106,48.37-167.52C488.65,194.44,427.23,144.68,362.64,135.3Z" transform="translate(-67.68 -133.64)"/><path class="cls-2" d="M350.84,199c42.92,2.32,91.17,33.79,92,72,1,43.37-59.54,83.69-112.08,75.5-40.66-6.34-84.81-43-80.22-83.76C255.31,220.66,309.45,196.76,350.84,199Z" transform="translate(-67.68 -133.64)"/><path class="cls-3" d="M398,275.67c-.08,18.26-28.45,34.91-53,33.06-24.17-1.86-49.71-22-47.21-40.1,2.34-17,28.53-27.4,48.34-27.16a53.86,53.86,0,0,1,7.92.65c-6.22,3.07-11.07,7.6-11.88,13.26-1.62,11.8,15,24.89,30.71,26.11a40,40,0,0,0,25.06-7.12A7.1,7.1,0,0,1,398,275.67Z" transform="translate(-67.68 -133.64)"/></svg>